<svg width="1600" height="900" viewBox="0 0 1600 900" fill="none" xmlns="http://www.w3.org/2000/svg">
  <defs>
    <linearGradient id="bg" x1="0" y1="0" x2="1600" y2="900" gradientUnits="userSpaceOnUse">
      <stop stop-color="#FFFDF8"/>
      <stop offset="1" stop-color="#F7F1E7"/>
    </linearGradient>
    <pattern id="techGrid" x="0" y="0" width="48" height="48" patternUnits="userSpaceOnUse">
      <path d="M 48 0 L 0 0 0 48" fill="none" stroke="#E9DED1" stroke-width="1"/>
      <circle cx="24" cy="24" r="1.8" fill="#E6DACD"/>
    </pattern>
    <linearGradient id="bandTop" x1="0" y1="0" x2="1600" y2="0" gradientUnits="userSpaceOnUse">
      <stop stop-color="#F2E4CF" stop-opacity="0"/>
      <stop offset="0.45" stop-color="#F2E4CF" stop-opacity="0.95"/>
      <stop offset="1" stop-color="#F2E4CF" stop-opacity="0"/>
    </linearGradient>
    <linearGradient id="bandBottom" x1="0" y1="0" x2="1600" y2="0" gradientUnits="userSpaceOnUse">
      <stop stop-color="#E8F0DE" stop-opacity="0"/>
      <stop offset="0.5" stop-color="#E8F0DE" stop-opacity="0.85"/>
      <stop offset="1" stop-color="#E8F0DE" stop-opacity="0"/>
    </linearGradient>
    <filter id="shadow" x="-20%" y="-20%" width="140%" height="140%" filterUnits="objectBoundingBox">
      <feDropShadow dx="0" dy="12" stdDeviation="16" flood-color="#0F172A" flood-opacity="0.10"/>
    </filter>
    <marker id="arrow" viewBox="0 0 8 8" refX="7" refY="4" markerWidth="7" markerHeight="7" orient="auto-start-reverse">
      <path d="M 0 0 L 8 4 L 0 8 z" fill="#94A3B8"/>
    </marker>

    <style>
      .title { font: 700 36px 'Segoe UI', Arial, sans-serif; fill: #0F172A; }
      .subtitle { font: 500 17px 'Segoe UI', Arial, sans-serif; fill: #475569; }
      .section { font: 700 18px 'Segoe UI', Arial, sans-serif; fill: #0F172A; }
      .cardTitle { font: 700 22px 'Segoe UI', Arial, sans-serif; fill: #0F172A; }
      .cardText { font: 500 17px 'Segoe UI', Arial, sans-serif; fill: #475569; }
      .small { font: 600 15px 'Segoe UI', Arial, sans-serif; fill: #334155; }
      .chip { font: 700 13px 'Segoe UI', Arial, sans-serif; fill: #0F172A; }
      .flowText { font: 600 15px 'Segoe UI', Arial, sans-serif; fill: #475569; }
      .flow { stroke: #94A3B8; stroke-width: 2; stroke-linecap: round; marker-end: url(#arrow); }
    </style>

    <symbol id="logo-github" viewBox="0 0 24 24">
      <path fill="#181717" d="M12 .297c-6.63 0-12 5.373-12 12 0 5.303 3.438 9.8 8.205 11.385.6.113.82-.258.82-.577 0-.285-.01-1.04-.015-2.04-3.338.724-4.042-1.61-4.042-1.61C4.422 18.07 3.633 17.7 3.633 17.7c-1.087-.744.084-.729.084-.729 1.205.084 1.838 1.236 1.838 1.236 1.07 1.835 2.809 1.305 3.495.998.108-.776.417-1.305.76-1.605-2.665-.3-5.466-1.332-5.466-5.93 0-1.31.465-2.38 1.235-3.22-.135-.303-.54-1.523.105-3.176 0 0 1.005-.322 3.3 1.23.96-.267 1.98-.399 3-.405 1.02.006 2.04.138 3 .405 2.28-1.552 3.285-1.23 3.285-1.23.645 1.653.24 2.873.12 3.176.765.84 1.23 1.91 1.23 3.22 0 4.61-2.805 5.625-5.475 5.92.42.36.81 1.096.81 2.22 0 1.606-.015 2.896-.015 3.286 0 .315.21.69.825.57C20.565 22.092 24 17.592 24 12.297c0-6.627-5.373-12-12-12"/>
    </symbol>
    <symbol id="logo-terraform" viewBox="0 0 24 24">
      <path fill="#844FBA" d="M1.44 0v7.575l6.561 3.79V3.787zm21.12 4.227l-6.561 3.791v7.574l6.56-3.787zM8.72 4.23v7.575l6.561 3.787V8.018zm0 8.405v7.575L15.28 24v-7.578z"/>
    </symbol>
    <symbol id="logo-kubernetes" viewBox="0 0 24 24">
      <path fill="#326CE5" d="M10.204 14.35l.007.01-.999 2.413a5.171 5.171 0 0 1-2.075-2.597l2.578-.437.004.005a.44.44 0 0 1 .484.606zm-.833-2.129a.44.44 0 0 0 .173-.756l.002-.011L7.585 9.7a5.143 5.143 0 0 0-.73 3.255l2.514-.725.002-.009zm1.145-1.98a.44.44 0 0 0 .699-.337l.01-.005.15-2.62a5.144 5.144 0 0 0-3.01 1.442l2.147 1.523.004-.002zm.76 2.75l.723.349.722-.347.18-.78-.5-.623h-.804l-.5.623.179.779zm1.5-3.095a.44.44 0 0 0 .7.336l.008.003 2.134-1.513a5.188 5.188 0 0 0-2.992-1.442l.148 2.615.002.001zm10.876 5.97l-5.773 7.181a1.6 1.6 0 0 1-1.248.594l-9.261.003a1.6 1.6 0 0 1-1.247-.596l-5.776-7.18a1.583 1.583 0 0 1-.307-1.34L2.1 5.573c.108-.47.425-.864.863-1.073L11.305.513a1.606 1.606 0 0 1 1.385 0l8.345 3.985c.438.209.755.604.863 1.073l2.062 8.955c.108.47-.005.963-.308 1.34z"/>
    </symbol>
    <symbol id="logo-prometheus" viewBox="0 0 24 24">
      <path fill="#E6522C" d="M12 0C5.373 0 0 5.372 0 12c0 6.627 5.373 12 12 12s12-5.373 12-12c0-6.628-5.373-12-12-12zm0 22.46c-1.885 0-3.414-1.26-3.414-2.814h6.828c0 1.553-1.528 2.813-3.414 2.813zm5.64-3.745H6.36v-2.046h11.28v2.046zm-.04-3.098H6.391c-.037-.043-.075-.086-.111-.13-1.155-1.401-1.427-2.133-1.69-2.879-.005-.025 1.4.287 2.395.511 0 0 .513.119 1.262.255-.72-.843-1.147-1.915-1.147-3.01 0-2.406 1.845-4.508 1.18-6.207.648.053 1.34 1.367 1.387 3.422.689-.951.977-2.69.977-3.755 0-1.103.727-2.385 1.454-2.429-.648 1.069.168 1.984.894 4.256.272.854.237 2.29.447 3.201.07-1.892.395-4.652 1.595-5.605-.529 1.2.079 2.702.494 3.424.671 1.164 1.078 2.047 1.078 3.716a4.642 4.642 0 01-1.11 2.996c.792-.149 1.34-.283 1.34-.283l2.573-.502s-.374 1.538-1.81 3.019z"/>
    </symbol>
    <symbol id="logo-grafana" viewBox="0 0 24 24">
      <path fill="#F46800" d="M23.02 10.59a8.578 8.578 0 0 0-.862-3.034 8.911 8.911 0 0 0-1.789-2.445c.337-1.342-.413-2.505-.413-2.505-1.292-.08-2.113.4-2.416.62-.052-.02-.102-.044-.154-.064-.22-.089-.446-.172-.677-.247-.231-.073-.47-.14-.711-.197a9.867 9.867 0 0 0-.875-.161C14.557.753 12.94 0 12.94 0c-1.804 1.145-2.147 2.744-2.147 2.744l-.018.093c-.098.029-.2.057-.298.088-.138.042-.275.094-.413.143-.138.055-.275.107-.41.166a8.869 8.869 0 0 0-1.557.87l-.063-.029c-2.497-.955-4.716.195-4.716.195-.203 2.658.996 4.33 1.235 4.636a11.608 11.608 0 0 0-.607 2.635C1.636 12.677.953 15.014.953 15.014c1.926 2.214 4.171 2.351 4.171 2.351.003-.002.006-.002.006-.005.285.509.615.994.986 1.446.156.19.32.371.488.548-.704 2.009.099 3.68.099 3.68 2.144.08 3.553-.937 3.849-1.173a9.784 9.784 0 0 0 3.164.501h.08l.055-.003.107-.002.103-.005.003.002c1.01 1.44 2.788 1.646 2.788 1.646 1.264-1.332 1.337-2.653 1.337-2.94v-.058c0-.02-.003-.039-.003-.06.265-.187.52-.387.758-.6a7.875 7.875 0 0 0 1.415-1.7c1.43.083 2.437-.885 2.437-.885-.236-1.49-1.085-2.216-1.264-2.354l-.018-.013-.016-.013a.217.217 0 0 1-.031-.02c.008-.092.016-.18.02-.27.011-.162.016-.323.016-.48v-.253l-.005-.098-.008-.135a1.891 1.891 0 0 0-.01-.13c-.003-.042-.008-.083-.013-.125l-.016-.124-.018-.122a6.215 6.215 0 0 0-2.032-3.73 6.015 6.015 0 0 0-3.222-1.46 6.292 6.292 0 0 0-.85-.048l-.107.002h-.063l-.044.003-.104.008a4.777 4.777 0 0 0-3.335 1.695c-.332.4-.592.84-.768 1.297a4.594 4.594 0 0 0-.312 1.817l.003.091c.005.055.007.11.013.164a3.615 3.615 0 0 0 .698 1.82 3.53 3.53 0 0 0 1.827 1.282c.33.098.66.14.971.137.039 0 .078 0 .114-.002l.063-.003c.02 0 .041-.003.062-.003.034-.002.065-.007.099-.01.007 0 .018-.003.028-.003l.031-.005.06-.008a1.18 1.18 0 0 0 .112-.02c.036-.008.072-.013.109-.024a2.634 2.634 0 0 0 .914-.415c.028-.02.056-.041.085-.065a.248.248 0 0 0 .039-.35.244.244 0 0 0-.309-.06l-.078.042c-.09.044-.184.083-.283.116a2.476 2.476 0 0 1-.475.096c-.028.003-.054.006-.083.006l-.083.002c-.026 0-.054 0-.08-.002l-.102-.006h-.012l-.024.006c-.016-.003-.031-.003-.044-.006-.031-.002-.06-.007-.091-.01a2.59 2.59 0 0 1-.724-.213 2.557 2.557 0 0 1-.667-.438 2.52 2.52 0 0 1-.805-1.475 2.306 2.306 0 0 1-.029-.444l.006-.122v-.023l.002-.031c.003-.021.003-.04.005-.06a3.163 3.163 0 0 1 1.352-2.29 3.12 3.12 0 0 1 .937-.43 2.946 2.946 0 0 1 .776-.101h.06l.07.002.045.003h.026l.07.005a4.041 4.041 0 0 1 1.635.49 3.94 3.94 0 0 1 1.602 1.662 3.77 3.77 0 0 1 .397 1.414l.005.076.003.075c.002.026.002.05.002.075 0 .024.003.052 0 .07v.065l-.002.073-.008.174a6.195 6.195 0 0 1-.08.639 5.1 5.1 0 0 1-.267.927 5.31 5.31 0 0 1-.624 1.13 5.052 5.052 0 0 1-3.237 2.014 4.82 4.82 0 0 1-.649.066l-.039.003h-.287a6.607 6.607 0 0 1-1.716-.265 6.776 6.776 0 0 1-3.4-2.274 6.75 6.75 0 0 1-.746-1.15 6.616 6.616 0 0 1-.714-2.596l-.005-.083-.002-.02v-.056l-.003-.073v-.096l-.003-.104v-.07l.003-.163c.008-.22.026-.45.054-.678a8.707 8.707 0 0 1 .28-1.355c.128-.444.286-.872.473-1.277a7.04 7.04 0 0 1 1.456-2.1 5.925 5.925 0 0 1 .953-.763c.169-.111.343-.213.524-.306.089-.05.182-.091.273-.135.047-.02.093-.042.138-.062a7.177 7.177 0 0 1 .714-.267l.145-.045c.049-.015.098-.026.148-.041.098-.029.197-.052.296-.076.049-.013.1-.02.15-.033l.15-.032.151-.028.076-.013.075-.01.153-.024c.057-.01.114-.013.171-.023l.169-.021c.036-.003.073-.008.106-.01l.073-.008.036-.003.042-.002c.057-.003.114-.008.171-.01l.086-.006h.023l.037-.003.145-.007a7.999 7.999 0 0 1 1.708.125 7.917 7.917 0 0 1 2.048.68 8.253 8.253 0 0 1 1.672 1.09l.09.077.089.078c.06.052.114.107.171.159.057.052.112.106.166.16.052.055.107.107.159.164a8.671 8.671 0 0 1 1.41 1.978c.012.026.028.052.04.078l.04.078.075.156c.023.051.05.1.07.153l.065.15a8.848 8.848 0 0 1 .45 1.34.19.19 0 0 0 .201.142.186.186 0 0 0 .172-.184c.01-.246.002-.532-.024-.856z"/>
    </symbol>
    <symbol id="logo-azure" viewBox="0 0 24 24">
      <path fill="#0078D4" d="M13.1 1 4 17h5.4l3.7-6.5L18 23h5L13.1 1z"/>
      <path fill="#50A9F8" d="M11.5 13.8 8.9 18h3.8l1.8 5h4.3z"/>
    </symbol>
  </defs>

  <rect width="1600" height="900" fill="url(#bg)"/>
  <rect width="1600" height="900" fill="url(#techGrid)" opacity="0.55"/>
  <rect x="120" y="42" width="1360" height="148" rx="74" fill="url(#bandTop)" opacity="0.85"/>
  <rect x="80" y="690" width="1440" height="150" rx="75" fill="url(#bandBottom)" opacity="0.8"/>

  <text x="80" y="86" class="title">Cloud-Native FastAPI on Azure</text>
  <text x="80" y="118" class="subtitle">Terraform + GitHub Actions + ACR + AKS + Ingress + Prometheus + Grafana</text>

  <rect x="80" y="170" width="300" height="250" rx="28" fill="#FFFFFF" stroke="#D0DBE8" stroke-width="1.4" filter="url(#shadow)"/>
  <circle cx="140" cy="240" r="34" fill="#F1F5F9"/>
  <g transform="translate(122 222) scale(1.5)">
    <use href="#logo-github"/>
  </g>
  <text x="190" y="235" class="cardTitle">GitHub Actions</text>
  <text x="190" y="258" class="cardText">Validate, build</text>
  <text x="190" y="280" class="cardText">and deploy</text>
  <rect x="112" y="308" width="78" height="30" rx="15" fill="#E2E8F0"/><text x="126" y="328" class="chip">Validate</text>
  <rect x="198" y="308" width="68" height="30" rx="15" fill="#DBEAFE"/><text x="212" y="328" class="chip">Build</text>
  <rect x="274" y="308" width="68" height="30" rx="15" fill="#FEE2E2"/><text x="288" y="328" class="chip">Trivy</text>
  <rect x="112" y="348" width="104" height="30" rx="15" fill="#DCFCE7"/><text x="132" y="368" class="chip">Rollout</text>
  <rect x="226" y="348" width="126" height="30" rx="15" fill="#E0F2FE"/><text x="242" y="368" class="chip">Push to ACR</text>

  <rect x="80" y="470" width="300" height="180" rx="28" fill="#FFFFFF" stroke="#D8CDEB" stroke-width="1.4" filter="url(#shadow)"/>
  <circle cx="140" cy="540" r="34" fill="#F3E8FF"/>
  <g transform="translate(122 522) scale(1.5)">
    <use href="#logo-terraform"/>
  </g>
  <text x="184" y="539" class="cardTitle">Terraform</text>
  <text x="184" y="572" class="cardText">Modules provision Azure</text>
  <text x="184" y="594" class="cardText">infrastructure</text>
  <text x="112" y="616" class="small">Resource Group, network, ACR, AKS</text>
  <text x="112" y="636" class="small">and monitoring</text>

  <rect x="470" y="170" width="430" height="480" rx="32" fill="#FFFFFF" stroke="#C7D9EF" stroke-width="1.4" filter="url(#shadow)"/>
  <circle cx="542" cy="242" r="38" fill="#E0F2FE"/>
  <g transform="translate(520 220) scale(1.85)">
    <use href="#logo-azure"/>
  </g>
  <text x="600" y="235" class="cardTitle">Azure Platform</text>
  <text x="600" y="266" class="cardText">Terraform-managed Azure services</text>
  <text x="600" y="290" class="cardText">for delivery and runtime</text>

  <rect x="520" y="310" width="155" height="82" rx="22" fill="#EFF6FF" stroke="#BFDBFE"/>
  <text x="553" y="345" class="section">Network</text>
  <text x="553" y="370" class="cardText">VNet / Subnet</text>

  <rect x="695" y="310" width="155" height="82" rx="22" fill="#EFF6FF" stroke="#BFDBFE"/>
  <text x="732" y="345" class="section">Registry</text>
  <text x="752" y="370" class="cardText">ACR</text>

  <rect x="520" y="414" width="155" height="82" rx="22" fill="#EFF6FF" stroke="#BFDBFE"/>
  <text x="540" y="449" class="section">AKS</text>
  <text x="533" y="474" class="cardText">Managed cluster</text>

  <rect x="695" y="414" width="155" height="82" rx="22" fill="#EFF6FF" stroke="#BFDBFE"/>
  <text x="712" y="449" class="section">Monitoring</text>
  <text x="718" y="474" class="cardText">Azure Monitor</text>

  <rect x="520" y="540" width="206" height="34" rx="17" fill="#E2E8F0"/>
  <text x="528" y="562" class="chip">Azure CNI powered by Cilium</text>
  <rect x="738" y="540" width="142" height="34" rx="17" fill="#E2E8F0"/>
  <text x="752" y="562" class="chip">AcrPull + RBAC</text>

  <rect x="980" y="170" width="540" height="480" rx="32" fill="#FFFFFF" stroke="#C4DDED" stroke-width="1.4" filter="url(#shadow)"/>
  <circle cx="1052" cy="242" r="38" fill="#FEE2E2"/>
  <g transform="translate(1029 219) scale(1.9)">
    <use href="#logo-kubernetes"/>
  </g>
  <text x="1110" y="235" class="cardTitle">AKS Runtime</text>
  <text x="1110" y="266" class="cardText">FastAPI workload exposed through ingress</text>
  <text x="1110" y="290" class="cardText">with scaling and runtime safeguards</text>

  <rect x="1030" y="315" width="164" height="38" rx="19" fill="#E2E8F0"/>
  <text x="1047" y="339" class="chip">Ingress Controller</text>
  <rect x="1204" y="315" width="108" height="38" rx="19" fill="#E0F2FE"/>
  <text x="1227" y="339" class="chip">Ingress</text>
  <rect x="1322" y="315" width="164" height="38" rx="19" fill="#E2E8F0"/>
  <text x="1341" y="339" class="chip">ClusterIP Service</text>
  <line x1="1194" y1="334" x2="1204" y2="334" class="flow"/>
  <line x1="1312" y1="334" x2="1322" y2="334" class="flow"/>

  <rect x="1088" y="410" width="324" height="120" rx="26" fill="#DBEAFE" stroke="#93C5FD"/>
  <text x="1180" y="455" class="cardTitle">FastAPI Pods</text>
  <text x="1140" y="486" class="cardText">readiness and liveness probes</text>
  <text x="1098" y="512" class="cardText">limits, requests and non-root hardening</text>
  <line x1="1375" y1="351" x2="1250" y2="410" class="flow"/>

  <rect x="1095" y="560" width="74" height="32" rx="16" fill="#E2E8F0"/><text x="1119" y="581" class="chip">HPA</text>
  <rect x="1178" y="560" width="84" height="32" rx="16" fill="#E2E8F0"/><text x="1203" y="581" class="chip">PDB</text>
  <rect x="1271" y="560" width="120" height="32" rx="16" fill="#E2E8F0"/><text x="1281" y="581" class="chip">NetworkPolicy</text>

  <rect x="980" y="700" width="540" height="150" rx="32" fill="#FFFFFF" stroke="#CBE1D2" stroke-width="1.4" filter="url(#shadow)"/>
  <text x="1185" y="745" class="section">Observability</text>
  <text x="982" y="772" class="cardText">Prometheus scrapes application metrics and Grafana visualizes them</text>

  <circle cx="1110" cy="810" r="26" fill="#DCFCE7"/>
  <g transform="translate(1095 795) scale(1.25)">
    <use href="#logo-prometheus"/>
  </g>
  <text x="1148" y="816" class="cardTitle">Prometheus</text>

  <circle cx="1322" cy="810" r="26" fill="#DCFCE7"/>
  <g transform="translate(1307 795) scale(1.25)">
    <use href="#logo-grafana"/>
  </g>
  <text x="1360" y="816" class="cardTitle">Grafana</text>

  <line x1="1250" y1="530" x2="1250" y2="700" class="flow"/>
  <line x1="380" y1="308" x2="470" y2="308" class="flow"/>
  <text x="392" y="285" class="flowText">image pipeline</text>
  <line x1="380" y1="602" x2="470" y2="602" class="flow"/>
  <text x="396" y="584" class="flowText">provision</text>
  <line x1="900" y1="445" x2="980" y2="445" class="flow"/>
  <rect x="900" y="402" width="192" height="30" rx="15" fill="#FFFFFF" stroke="#D7E2F0"/>
  <text x="907" y="421" class="flowText">AKS pulls image from ACR</text>
</svg>
