<svg width="1600" height="900" viewBox="0 0 1600 900" fill="none" xmlns="http://www.w3.org/2000/svg">
  <title>FastAPI on Azure AKS - High Level Project Flow</title>
  <desc>High-level professional flow diagram for a FastAPI service delivered to Azure AKS with Terraform, Docker, GitHub Actions, Kubernetes, and observability.</desc>

  <defs>
    <linearGradient id="page" x1="0" y1="0" x2="1600" y2="900" gradientUnits="userSpaceOnUse">
      <stop stop-color="#F8FAFC"/>
      <stop offset="0.52" stop-color="#F4F8F7"/>
      <stop offset="1" stop-color="#F8F2E8"/>
    </linearGradient>

    <linearGradient id="pipeline" x1="0" y1="0" x2="260" y2="180" gradientUnits="userSpaceOnUse">
      <stop stop-color="#FFFFFF"/>
      <stop offset="1" stop-color="#EEF6FF"/>
    </linearGradient>

    <linearGradient id="azure" x1="0" y1="0" x2="300" y2="210" gradientUnits="userSpaceOnUse">
      <stop stop-color="#F0F7FF"/>
      <stop offset="1" stop-color="#E7F1FC"/>
    </linearGradient>

    <linearGradient id="runtime" x1="0" y1="0" x2="300" y2="210" gradientUnits="userSpaceOnUse">
      <stop stop-color="#F0FDF4"/>
      <stop offset="1" stop-color="#E7F7EC"/>
    </linearGradient>

    <linearGradient id="observe" x1="0" y1="0" x2="300" y2="210" gradientUnits="userSpaceOnUse">
      <stop stop-color="#FFF7ED"/>
      <stop offset="1" stop-color="#FCEBD6"/>
    </linearGradient>

    <pattern id="grid" width="44" height="44" patternUnits="userSpaceOnUse">
      <path d="M 44 0 L 0 0 0 44" stroke="#DCE5EA" stroke-width="1" opacity="0.7"/>
      <circle cx="22" cy="22" r="1.2" fill="#C8D3DA" opacity="0.62"/>
    </pattern>

    <filter id="shadow" x="-20%" y="-20%" width="140%" height="140%" color-interpolation-filters="sRGB">
      <feDropShadow dx="0" dy="16" stdDeviation="18" flood-color="#0F172A" flood-opacity="0.12"/>
    </filter>

    <marker id="arrow-blue" viewBox="0 0 10 10" refX="9" refY="5" markerWidth="8" markerHeight="8" orient="auto-start-reverse">
      <path d="M 0 0 L 10 5 L 0 10 z" fill="#2563EB"/>
    </marker>

    <marker id="arrow-green" viewBox="0 0 10 10" refX="9" refY="5" markerWidth="8" markerHeight="8" orient="auto-start-reverse">
      <path d="M 0 0 L 10 5 L 0 10 z" fill="#16A34A"/>
    </marker>

    <marker id="arrow-amber" viewBox="0 0 10 10" refX="9" refY="5" markerWidth="8" markerHeight="8" orient="auto-start-reverse">
      <path d="M 0 0 L 10 5 L 0 10 z" fill="#D97706"/>
    </marker>

    <style>
      .eyebrow {
        font: 800 14px 'Segoe UI', Arial, sans-serif;
        fill: #2563EB;
        letter-spacing: 0.12em;
      }

      .title {
        font: 800 46px 'Segoe UI', Arial, sans-serif;
        fill: #0F172A;
        letter-spacing: 0;
      }

      .subtitle {
        font: 500 20px 'Segoe UI', Arial, sans-serif;
        fill: #475569;
        letter-spacing: 0;
      }

      .card-title {
        font: 800 23px 'Segoe UI', Arial, sans-serif;
        fill: #0F172A;
        letter-spacing: 0;
      }

      .card-text {
        font: 500 16px 'Segoe UI', Arial, sans-serif;
        fill: #475569;
        letter-spacing: 0;
      }

      .chip {
        font: 800 13px 'Segoe UI', Arial, sans-serif;
        fill: #0F172A;
        letter-spacing: 0;
      }

      .footer {
        font: 700 15px 'Segoe UI', Arial, sans-serif;
        fill: #334155;
        letter-spacing: 0;
      }

      .flow-label {
        font: 800 13px 'Segoe UI', Arial, sans-serif;
        fill: #334155;
      }

      .arrow-blue {
        stroke: #2563EB;
        stroke-width: 3.4;
        stroke-linecap: round;
        stroke-linejoin: round;
        marker-end: url(#arrow-blue);
      }

      .arrow-green {
        stroke: #16A34A;
        stroke-width: 3.4;
        stroke-linecap: round;
        stroke-linejoin: round;
        marker-end: url(#arrow-green);
      }

      .arrow-amber {
        stroke: #D97706;
        stroke-width: 3.4;
        stroke-linecap: round;
        stroke-linejoin: round;
        marker-end: url(#arrow-amber);
      }

      .dashed {
        stroke-dasharray: 8 8;
      }
    </style>
  </defs>

  <rect width="1600" height="900" fill="url(#page)"/>
  <rect width="1600" height="900" fill="url(#grid)" opacity="0.35"/>

  <g transform="translate(88 74)">
    <text x="0" y="0" class="eyebrow">CLOUD-NATIVE DELIVERY OVERVIEW</text>
    <text x="0" y="58" class="title">FastAPI on Azure AKS</text>
    <text x="0" y="94" class="subtitle">A cloud-native flow for a containerized FastAPI service: IaC, CI/CD, AKS, security and observability.</text>
  </g>

  <g transform="translate(1038 72)">
    <rect width="424" height="138" rx="26" fill="#FFFFFF" stroke="#D7E1E8" filter="url(#shadow)"/>
    <text x="34" y="44" class="card-title">Technology stack</text>
    <rect x="34" y="68" width="88" height="28" rx="14" fill="#DBEAFE"/>
    <text x="60" y="87" class="chip">Azure</text>
    <rect x="136" y="68" width="82" height="28" rx="14" fill="#DCFCE7"/>
    <text x="164" y="87" class="chip">AKS</text>
    <rect x="232" y="68" width="128" height="28" rx="14" fill="#FDE68A"/>
    <text x="260" y="87" class="chip">Terraform</text>
    <rect x="34" y="102" width="100" height="26" rx="13" fill="#E0F2FE"/>
    <text x="64" y="119" class="chip">Docker</text>
    <rect x="148" y="102" width="154" height="26" rx="13" fill="#F1F5F9"/>
    <text x="176" y="119" class="chip">GitHub Actions</text>
    <rect x="316" y="102" width="74" height="26" rx="13" fill="#FCE7F3"/>
    <text x="338" y="119" class="chip">K8s</text>
  </g>

  <!-- Main flow cards -->
  <g transform="translate(88 290)">
    <rect width="250" height="212" rx="28" fill="#FFFFFF" stroke="#D7E1E8" filter="url(#shadow)"/>
    <circle cx="42" cy="44" r="20" fill="#0F172A"/>
    <path d="M 34 44 L 42 52 L 52 36" stroke="#FFFFFF" stroke-width="3" stroke-linecap="round" stroke-linejoin="round"/>
    <text x="76" y="50" class="card-title">Source Code</text>
    <text x="32" y="96" class="card-text">FastAPI quote API</text>
    <text x="32" y="124" class="card-text">Dockerfile and tests</text>
    <text x="32" y="152" class="card-text">Terraform and K8s manifests</text>
  </g>

  <g transform="translate(396 290)">
    <rect width="270" height="212" rx="28" fill="url(#pipeline)" stroke="#CFE0EF" filter="url(#shadow)"/>
    <circle cx="42" cy="44" r="20" fill="#2563EB"/>
    <path d="M 34 39 H 50 M 34 49 H 46" stroke="#FFFFFF" stroke-width="3" stroke-linecap="round"/>
    <text x="76" y="50" class="card-title">CI/CD Pipeline</text>
    <text x="34" y="96" class="card-text">Validate code, IaC and YAML</text>
    <text x="34" y="124" class="card-text">Build and scan image</text>
    <text x="34" y="152" class="card-text">OIDC login, push and deploy</text>
  </g>

  <g transform="translate(724 290)">
    <rect width="270" height="212" rx="28" fill="url(#azure)" stroke="#BFD7EA" filter="url(#shadow)"/>
    <circle cx="42" cy="44" r="20" fill="#0078D4"/>
    <path d="M 35 53 L 45 33 L 57 62 H 48 L 43 49 L 39 53 H 35 Z" fill="#FFFFFF"/>
    <text x="76" y="50" class="card-title">Azure Platform</text>
    <text x="34" y="96" class="card-text">Terraform provisions Azure</text>
    <text x="34" y="124" class="card-text">VNet, ACR, AKS and logs</text>
    <text x="34" y="152" class="card-text">AcrPull links AKS to ACR</text>
  </g>

  <g transform="translate(1052 290)">
    <rect width="270" height="212" rx="28" fill="url(#runtime)" stroke="#C2E5C9" filter="url(#shadow)"/>
    <circle cx="42" cy="44" r="20" fill="#16A34A"/>
    <path d="M 42 31 L 55 39 V 54 L 42 62 L 29 54 V 39 L 42 31 Z" stroke="#FFFFFF" stroke-width="3" fill="none"/>
    <path d="M 42 31 V 45 L 55 39 M 42 45 L 29 39" stroke="#FFFFFF" stroke-width="2.6" stroke-linecap="round" stroke-linejoin="round"/>
    <text x="76" y="50" class="card-title">AKS Runtime</text>
    <text x="34" y="96" class="card-text">Ingress exposes the API</text>
    <text x="34" y="124" class="card-text">Service routes to FastAPI pods</text>
    <text x="34" y="152" class="card-text">HPA, PDB and NetworkPolicy</text>
  </g>

  <g transform="translate(1178 602)">
    <rect width="344" height="170" rx="28" fill="url(#observe)" stroke="#E6D1B5" filter="url(#shadow)"/>
    <circle cx="42" cy="44" r="20" fill="#D97706"/>
    <path d="M 33 53 C 36 43 39 39 43 44 C 48 51 51 39 56 35" stroke="#FFFFFF" stroke-width="3" fill="none" stroke-linecap="round"/>
    <text x="76" y="50" class="card-title">Observability</text>
    <text x="34" y="88" class="card-text">Prometheus scrapes /metrics</text>
    <text x="34" y="116" class="card-text">Grafana visualizes traffic and latency</text>
    <text x="34" y="144" class="card-text">Azure diagnostics in Log Analytics</text>
  </g>

  <!-- Flow arrows -->
  <path d="M 338 396 C 360 396, 374 396, 396 396" class="arrow-blue"/>
  <text x="348" y="374" class="flow-label">commit</text>

  <path d="M 666 396 C 688 396, 702 396, 724 396" class="arrow-blue"/>
  <text x="650" y="374" class="flow-label">image + release</text>

  <path d="M 994 396 C 1016 396, 1030 396, 1052 396" class="arrow-green"/>
  <text x="1012" y="374" class="flow-label">runtime</text>

  <path d="M 1220 502 C 1220 552, 1242 580, 1284 602" class="arrow-amber dashed"/>
  <text x="1244" y="558" class="flow-label">metrics</text>

  <!-- Supporting platform ribbon -->
  <g transform="translate(88 626)">
    <rect width="938" height="146" rx="28" fill="#FFFFFF" stroke="#D7E1E8" filter="url(#shadow)"/>
    <text x="34" y="48" class="card-title">What this project demonstrates</text>
    <text x="34" y="84" class="card-text">A complete DevOps/Cloud workflow around a real API workload, from source code to monitored AKS runtime.</text>

    <rect x="34" y="106" width="118" height="28" rx="14" fill="#DBEAFE"/>
    <text x="60" y="125" class="chip">IaC</text>
    <rect x="166" y="106" width="126" height="28" rx="14" fill="#DCFCE7"/>
    <text x="190" y="125" class="chip">CI/CD</text>
    <rect x="306" y="106" width="136" height="28" rx="14" fill="#E0F2FE"/>
    <text x="332" y="125" class="chip">Ingress</text>
    <rect x="456" y="106" width="120" height="28" rx="14" fill="#FDE68A"/>
    <text x="486" y="125" class="chip">Scaling</text>
    <rect x="590" y="106" width="142" height="28" rx="14" fill="#F1F5F9"/>
    <text x="614" y="125" class="chip">Security</text>
    <rect x="746" y="106" width="158" height="28" rx="14" fill="#FCE7F3"/>
    <text x="770" y="125" class="chip">Observability</text>
  </g>

  <g transform="translate(88 820)">
    <rect width="1434" height="42" rx="21" fill="#FFFFFF" stroke="#D7E1E8"/>
    <text x="344" y="27" class="footer">Outcome: a containerized FastAPI service deployed to Azure AKS with automated delivery, security gates and monitoring.</text>
  </g>
</svg>
